<?xml version="1.0" encoding="utf-8"?>
<!-- Generator: Adobe Illustrator 16.0.0, SVG Export Plug-In . SVG Version: 6.00 Build 0)  -->
<!DOCTYPE svg PUBLIC "-//W3C//DTD SVG 1.1//EN" "http://www.w3.org/Graphics/SVG/1.1/DTD/svg11.dtd">
<svg version="1.1" id="Layer_1" xmlns="http://www.w3.org/2000/svg" xmlns:xlink="http://www.w3.org/1999/xlink" x="0px" y="0px"
	 width="404.881px" height="404.881px" viewBox="0 0 404.881 404.881" enable-background="new 0 0 404.881 404.881"
	 xml:space="preserve">
<path class="bg" fill-rule="evenodd" clip-rule="evenodd" fill="#990033" d="M67.843,286.208c30.472,3.063,57.922-4.503,82.344-23.1
	c-11.904-0.563-22.689-4.215-32.198-11.368c-9.487-7.138-16.05-16.389-19.821-27.802c8.441,1.545,16.654,1.301,25.094-0.887
	c-15.747-3.665-27.88-12.065-36.351-25.542c-5.756-9.158-8.416-19.234-8.4-30.25c7.843,4.253,16.091,6.643,25.255,7.015
	c-2.5-1.795-4.687-3.442-6.677-5.327c-12.454-11.795-18.495-26.298-18.058-43.416c0.228-8.923,2.657-17.313,6.978-25.146
	c0.435-0.788,0.646-1.011,1.336-0.175c14.261,17.289,31.418,30.978,51.416,41.071c14.749,7.444,30.308,12.43,46.641,14.981
	c5.214,0.814,10.454,1.376,15.722,1.688c0.755,0.044,1.028-0.023,0.854-0.942c-3.718-19.695,1.17-36.96,15.151-51.343
	c9.166-9.429,20.523-14.856,33.653-16.154c17.901-1.77,33.295,3.769,46.122,16.396c0.54,0.532,0.961,0.961,1.926,0.757
	c11.973-2.52,23.244-6.835,33.813-12.994c0.194-0.114,0.403-0.203,0.842-0.422c-4.439,13.238-12.47,23.353-23.988,30.81
	c10.819-1.23,21.162-4.128,31.393-8.581c-0.289,0.521-0.422,0.816-0.604,1.08c-7.263,10.572-16.041,19.686-26.366,27.297
	c-0.693,0.511-0.905,0.988-0.868,1.865c0.396,9.286-0.129,18.527-1.448,27.729c-2.632,18.341-8.237,35.734-16.655,52.223
	c-7.109,13.929-15.996,26.616-26.777,37.961c-16.755,17.631-36.563,30.567-59.506,38.668c-10.995,3.882-22.303,6.426-33.878,7.826
	c-7.192,0.871-14.411,1.311-21.646,1.262c-30.492-0.207-58.695-8.362-84.552-24.56C68.331,286.667,67.989,286.589,67.843,286.208z"
	/>
</svg>
