<?xml version="1.0" encoding="UTF-8" standalone="no"?>
<!-- Created with Inkscape (http://www.inkscape.org/) -->

<svg
   xmlns:dc="http://purl.org/dc/elements/1.1/"
   xmlns:cc="http://creativecommons.org/ns#"
   xmlns:rdf="http://www.w3.org/1999/02/22-rdf-syntax-ns#"
   xmlns:svg="http://www.w3.org/2000/svg"
   xmlns="http://www.w3.org/2000/svg"
   xmlns:sodipodi="http://sodipodi.sourceforge.net/DTD/sodipodi-0.dtd"
   xmlns:inkscape="http://www.inkscape.org/namespaces/inkscape"
   width="232.25575mm"
   height="38.658798mm"
   viewBox="0 0 232.25575 38.658798"
   version="1.1"
   id="svg3690"
   inkscape:version="0.92.1 r15371">
  <defs
     id="defs3684" />
  <sodipodi:namedview
     id="base"
     pagecolor="#ffffff"
     bordercolor="#666666"
     borderopacity="1.0"
     inkscape:pageopacity="0.0"
     inkscape:pageshadow="2"
     inkscape:zoom="0.35"
     inkscape:cx="335.6629"
     inkscape:cy="70.130259"
     inkscape:document-units="mm"
     inkscape:current-layer="layer1"
     showgrid="false"
     fit-margin-top="0"
     fit-margin-left="0"
     fit-margin-right="0"
     fit-margin-bottom="0"
     inkscape:window-width="1920"
     inkscape:window-height="1017"
     inkscape:window-x="-8"
     inkscape:window-y="-8"
     inkscape:window-maximized="1" />

  <g
     inkscape:label="Layer 1"
     inkscape:groupmode="layer"
     id="layer1"
     transform="translate(-17.022525,-128.72983)">
    <g
   
       transform="translate(3.7797619,9.827381)">
      <path
	 
         d="m 48.904363,147.55365 q -1.3208,2.4892 -3.302,4.4704 -2.6416,2.6416 -6.0452,4.064 -3.556,1.4732 -7.366,1.4732 -3.81,0 -7.366,-1.4732 -3.4544,-1.4224 -6.0452,-4.064 -2.6416,-2.5908 -4.064,-6.0452 -1.4732,-3.556 -1.4732,-7.366 0,-3.81 1.4732,-7.366 1.4224,-3.4036 4.064,-6.0452 2.5908,-2.5908 6.0452,-4.064 3.556,-1.4732 7.366,-1.4732 3.81,0 7.366,1.4732 3.4036,1.4732 6.0452,4.064 1.9812,1.9812 3.302,4.4704 h -4.1656 q -0.4064,-0.5588 -0.8128,-1.016 -0.4064,-0.4572 -0.8636,-0.9144 -2.1844,-2.2352 -4.9784,-3.3528 -2.794,-1.1684 -5.8928,-1.1684 -3.0988,0 -5.8928,1.1684 -2.794,1.1176 -4.9784,3.3528 -2.2352,2.1844 -3.4036,4.9784 -1.1176,2.794 -1.1176,5.8928 0,3.0988 1.1176,5.8928 1.1684,2.794 3.4036,4.9784 2.1844,2.2352 4.9784,3.4036 2.794,1.1176 5.8928,1.1176 3.0988,0 5.8928,-1.1176 2.794,-1.1684 4.9784,-3.4036 0.4572,-0.4572 0.8636,-0.9144 0.4064,-0.4572 0.8128,-1.016 z"
         style="fill:#424242;"
         id="path3696"
         inkscape:connector-curvature="0" />
      <path
	   
         d="m 90.656404,138.96845 q 0,3.6068 -1.4732,7.0104 -0.7112,1.7272 -1.727199,3.2512 -1.016,1.4732 -2.3368,2.794 -2.5908,2.5908 -5.9944,4.064 -3.556,1.4732 -7.4168,1.4732 -3.81,0 -7.366,-1.4732 -3.4036,-1.4732 -5.9944,-4.064 -2.6924,-2.5908 -4.064,-6.0452 -1.524,-3.5052 -1.524,-7.366 0,-3.8608 1.524,-7.366 1.3716,-3.4544 4.064,-6.0452 2.5908,-2.5908 5.9944,-4.064 3.556,-1.4732 7.366,-1.4732 3.8608,0 7.4168,1.4732 3.4036,1.4732 5.9944,4.064 1.9304,1.9304 3.352799,4.4704 h -4.216399 q -0.3556,-0.5588 -0.762,-1.016 -0.4064,-0.4572 -0.8636,-0.9144 -2.1844,-2.2352 -5.0292,-3.3528 -2.794,-1.1684 -5.8928,-1.1684 -3.0988,0 -5.8928,1.1684 -2.794,1.1176 -4.9784,3.3528 -2.1844,2.1844 -3.3528,4.9784 -1.1684,2.794 -1.1684,5.8928 0,3.0988 1.1684,5.8928 1.1684,2.794 3.3528,4.9784 2.1844,2.2352 4.9784,3.4036 2.794,1.1176 5.8928,1.1176 3.0988,0 5.8928,-1.1176 2.8448,-1.1684 5.0292,-3.4036 1.4732,-1.4732 2.4384,-3.2512 1.016,-1.778 1.5748,-3.7084 h -14.9352 v -3.556 z"
         style="fill:#424242;"
         id="path3698"
         inkscape:connector-curvature="0" />
      <path
         d="m 149.08169,138.96845 q 0,3.6068 -1.4732,7.0104 -0.7112,1.7272 -1.7272,3.2512 -1.016,1.4732 -2.3368,2.794 -2.5908,2.5908 -5.9944,4.064 -3.556,1.4732 -7.4168,1.4732 -3.81,0 -7.366,-1.4732 -3.4036,-1.4732 -5.9944,-4.064 -2.6924,-2.5908 -4.064,-6.0452 -1.524,-3.5052 -1.524,-7.366 0,-3.8608 1.524,-7.366 1.3716,-3.4544 4.064,-6.0452 2.5908,-2.5908 5.9944,-4.064 3.556,-1.4732 7.366,-1.4732 3.8608,0 7.4168,1.4732 3.4036,1.4732 5.9944,4.064 1.9304,1.9304 3.3528,4.4704 h -4.2164 q -0.3556,-0.5588 -0.762,-1.016 -0.4064,-0.4572 -0.8636,-0.9144 -2.1844,-2.2352 -5.0292,-3.3528 -2.794,-1.1684 -5.8928,-1.1684 -3.0988,0 -5.8928,1.1684 -2.794,1.1176 -4.9784,3.3528 -2.1844,2.1844 -3.3528,4.9784 -1.1684,2.794 -1.1684,5.8928 0,3.0988 1.1684,5.8928 1.1684,2.794 3.3528,4.9784 2.1844,2.2352 4.9784,3.4036 2.794,1.1176 5.8928,1.1176 3.0988,0 5.8928,-1.1176 2.8448,-1.1684 5.0292,-3.4036 1.4732,-1.4732 2.4384,-3.2512 1.016,-1.778 1.5748,-3.7084 h -14.9352 v -3.556 z"
         style="fill:#424242"
         id="path3700"
         inkscape:connector-curvature="0" />
      <path
         d="m 155.14594,154.25925 q -1.6256,-1.6256 -2.4892,-3.7084 -0.8636,-2.0828 -0.8636,-4.3688 v -15.1892 h 3.556 v 15.1892 q 0,1.6256 0.6096,3.048 0.6604,1.4224 1.7272,2.4892 1.0668,1.0668 2.4892,1.6764 1.4224,0.6096 3.048,0.6096 1.6256,0 3.048,-0.6096 1.4224,-0.6096 2.4892,-1.6764 1.0668,-1.0668 1.6764,-2.4892 0.6604,-1.4224 0.6604,-3.048 v -15.1892 h 3.556 v 15.1892 q 0,2.286 -0.8636,4.3688 -0.8636,2.0828 -2.4892,3.7084 -1.6256,1.6256 -3.7084,2.4384 -2.0828,0.8636 -4.3688,0.8636 -2.286,0 -4.3688,-0.8636 -2.0828,-0.8128 -3.7084,-2.4384 z"
         style="fill:#424242;"
         id="path3702"
         inkscape:connector-curvature="0" />
      <path
         d="m 178.51078,130.99285 h 3.556 v 25.4 h -3.556 z m -0.3556,-9.906 q 0,-0.9144 0.6096,-1.524 0.6096,-0.6604 1.524,-0.6604 0.9144,0 1.524,0.6604 0.6604,0.6096 0.6604,1.524 0,0.9144 -0.6604,1.524 -0.6096,0.6096 -1.524,0.6096 -0.9144,0 -1.524,-0.6096 -0.6096,-0.6096 -0.6096,-1.524 z"
         style="fill:#424242"
         id="path3704"
         inkscape:connector-curvature="0" />
      <path
         d="m 185.88074,134.54885 v -3.556 h 2.5908 v -10.16 h 3.556 v 10.16 h 6.6548 v 3.556 h -6.6548 v 21.844 h -3.556 v -21.844 z"
         style="fill:#424242;font-size:50.79999924px;line-height:124.99998808%;letter-spacing:-2.25425005px;word-spacing:0.02910417px;writing-mode:lr-tb;stroke-width:0.26458332"
         id="path3706"
         inkscape:connector-curvature="0" />
      <path
         d="m 222.57898,133.83765 q 1.9812,1.9812 2.9972,4.5212 1.0668,2.54 1.0668,5.334 v 12.7 h -3.556 v -3.81 q -1.016,1.4224 -2.2352,2.3876 -1.2192,0.9144 -2.5908,1.4732 -1.3208,0.6096 -2.7432,0.8636 -1.4224,0.254 -2.7432,0.254 -2.794,0 -5.334,-1.0668 -2.54,-1.0668 -4.4704,-2.9972 -1.9812,-1.9812 -3.048,-4.5212 -1.016,-2.54 -1.016,-5.2832 0,-2.794 1.016,-5.334 1.0668,-2.54 3.048,-4.5212 1.9304,-1.9304 4.4704,-2.9972 2.54,-1.0668 5.334,-1.0668 2.794,0 5.334,1.0668 2.54,1.0668 4.4704,2.9972 z m -9.8044,20.1676 q 2.1336,0 4.0132,-0.8128 1.8796,-0.8128 3.2512,-2.1844 1.4224,-1.4224 2.2352,-3.302 0.8128,-1.8796 0.8128,-4.0132 0,-2.1336 -0.8128,-4.0132 -0.8128,-1.9304 -2.2352,-3.302 -1.3716,-1.4224 -3.2512,-2.2352 -1.8796,-0.8128 -4.0132,-0.8128 -2.1336,0 -4.0132,0.8128 -1.8796,0.8128 -3.302,2.2352 -1.3716,1.3716 -2.1844,3.302 -0.8128,1.8796 -0.8128,4.0132 0,2.1336 0.8128,4.0132 0.8128,1.8796 2.1844,3.302 1.4224,1.3716 3.302,2.1844 1.8796,0.8128 4.0132,0.8128 z"
         style="fill:#424242"
         id="path3708"
         inkscape:connector-curvature="0" />
      <path
         d="m 245.49851,134.75205 q -1.3208,-0.4064 -2.6416,-0.4064 -1.6256,0 -3.048,0.6096 -1.4224,0.6096 -2.4892,1.6764 -1.0668,1.0668 -1.6764,2.4892 -0.6096,1.4224 -0.6096,3.048 v 14.224 h -3.556 v -25.4 h 2.9464 l 0.8636,2.6416 q 1.5748,-1.3716 3.5052,-2.0828 1.9304,-0.762 4.064,-0.762 0.7112,0 1.3208,0.1016 0.6604,0.0508 1.3208,0.1524 z"
         style="fill:#424242"
         id="path3710"
         inkscape:connector-curvature="0" />
    </g>
  </g>
</svg>
