<?xml version="1.0" encoding="utf-8"?>
<!-- Generator: Adobe Illustrator 16.0.0, SVG Export Plug-In . SVG Version: 6.00 Build 0)  -->
<!DOCTYPE svg PUBLIC "-//W3C//DTD SVG 1.1//EN" "http://www.w3.org/Graphics/SVG/1.1/DTD/svg11.dtd">
<svg version="1.1" id="Layer_1" xmlns="http://www.w3.org/2000/svg" xmlns:xlink="http://www.w3.org/1999/xlink" x="0px" y="0px"
	 width="200px" height="231px" viewBox="174.486 195.734 200 231" enable-background="new 174.486 195.734 200 231"
	 xml:space="preserve">
<g id="Layer_4">
	<g id="pick">
		<path fill="#990033" d="M306.448,299.671c-1.531,2.236-0.961,5.292,1.275,6.825c2.237,1.532,5.292,0.961,6.823-1.275
			c1.533-2.236,0.964-5.292-1.275-6.824C311.035,296.864,307.981,297.434,306.448,299.671z"/>
		<path fill="#990033" d="M325.897,305.061c-1.533,2.237-0.962,5.292,1.275,6.825s5.292,0.962,6.823-1.275
			c1.533-2.236,0.963-5.292-1.275-6.825C330.484,302.254,327.431,302.825,325.897,305.061z"/>
		<path fill="#990033" d="M372.212,271.31c-0.004-0.389-0.012-0.777-0.021-1.163c-0.002-0.101-0.004-0.202-0.007-0.302
			c-0.01-0.372-0.022-0.742-0.037-1.111c-0.005-0.102-0.009-0.203-0.014-0.305c-0.017-0.379-0.035-0.758-0.057-1.135
			c-0.002-0.035-0.004-0.069-0.007-0.103c-0.073-1.246-0.176-2.477-0.307-3.693c-0.008-0.076-0.016-0.152-0.023-0.228
			c-0.039-0.348-0.081-0.694-0.124-1.04c-0.015-0.119-0.029-0.237-0.044-0.356c-0.044-0.335-0.09-0.669-0.138-1.002
			c-0.017-0.116-0.034-0.231-0.052-0.347c-0.051-0.343-0.103-0.685-0.158-1.025c-0.009-0.054-0.019-0.107-0.027-0.161
			c-0.189-1.14-0.405-2.264-0.648-3.374c-0.022-0.103-0.044-0.206-0.066-0.309c-0.07-0.312-0.143-0.622-0.217-0.931
			c-0.031-0.13-0.063-0.261-0.095-0.391c-0.073-0.303-0.149-0.604-0.228-0.904c-0.033-0.126-0.066-0.252-0.101-0.378
			c-0.082-0.308-0.164-0.616-0.251-0.922c-0.021-0.07-0.042-0.14-0.062-0.21c-0.297-1.036-0.62-2.058-0.967-3.065
			c-0.042-0.125-0.084-0.25-0.128-0.375c-0.098-0.275-0.197-0.55-0.298-0.823c-0.052-0.142-0.104-0.284-0.158-0.426
			c-0.101-0.268-0.203-0.535-0.308-0.801c-0.054-0.138-0.11-0.275-0.165-0.413c-0.109-0.272-0.219-0.543-0.331-0.813
			c-0.038-0.092-0.079-0.183-0.117-0.275c-0.258-0.606-0.525-1.207-0.803-1.802c-0.027-0.06-0.055-0.121-0.083-0.181
			c-0.121-0.257-0.245-0.512-0.37-0.767c-0.069-0.141-0.137-0.283-0.207-0.423c-0.121-0.242-0.244-0.482-0.367-0.722
			c-0.077-0.149-0.155-0.298-0.233-0.446c-0.125-0.237-0.251-0.473-0.38-0.708c-0.079-0.146-0.16-0.291-0.241-0.435
			c-0.132-0.237-0.264-0.475-0.399-0.709c-0.067-0.116-0.137-0.231-0.205-0.347c-0.278-0.476-0.565-0.949-0.858-1.417
			c-0.075-0.12-0.148-0.24-0.225-0.359c-0.141-0.22-0.284-0.438-0.428-0.657c-0.099-0.15-0.197-0.3-0.297-0.449
			c-0.142-0.21-0.285-0.42-0.429-0.628c-0.106-0.154-0.214-0.307-0.321-0.46c-0.146-0.205-0.291-0.411-0.438-0.614
			c-0.111-0.153-0.225-0.304-0.337-0.456c-0.15-0.202-0.3-0.405-0.452-0.605c-0.11-0.145-0.223-0.287-0.334-0.43
			c-0.288-0.369-0.58-0.735-0.878-1.098c-0.122-0.15-0.244-0.301-0.369-0.451c-0.156-0.187-0.316-0.372-0.476-0.557
			c-0.132-0.154-0.264-0.308-0.397-0.461c-0.16-0.182-0.321-0.362-0.483-0.542c-0.139-0.155-0.278-0.309-0.419-0.461
			c-0.162-0.176-0.325-0.353-0.489-0.527c-0.147-0.156-0.297-0.311-0.446-0.465c-0.163-0.17-0.325-0.34-0.491-0.508
			c-0.177-0.179-0.357-0.355-0.537-0.533c-0.271-0.269-0.547-0.535-0.825-0.799c-0.173-0.164-0.344-0.328-0.518-0.49
			c-0.17-0.158-0.344-0.313-0.516-0.47c-0.169-0.153-0.338-0.306-0.51-0.458c-0.174-0.155-0.35-0.309-0.527-0.461
			c-0.175-0.152-0.352-0.303-0.528-0.453c-0.177-0.149-0.354-0.299-0.532-0.447c-0.188-0.155-0.379-0.31-0.569-0.464
			c-0.172-0.139-0.343-0.279-0.517-0.417c-0.291-0.229-0.586-0.457-0.882-0.684c-0.211-0.161-0.425-0.321-0.639-0.48
			c-0.221-0.165-0.441-0.329-0.666-0.492c-0.181-0.131-0.365-0.261-0.549-0.392c-0.207-0.148-0.416-0.295-0.627-0.441
			c-0.188-0.13-0.377-0.26-0.567-0.389c-0.214-0.145-0.43-0.289-0.646-0.432c-0.188-0.125-0.377-0.25-0.568-0.374
			c-0.234-0.152-0.472-0.302-0.71-0.453c-0.175-0.111-0.349-0.222-0.525-0.332c-0.396-0.246-0.797-0.488-1.201-0.728
			c-0.16-0.095-0.323-0.188-0.484-0.282c-0.27-0.157-0.538-0.313-0.811-0.467c-0.192-0.109-0.388-0.216-0.582-0.324
			c-0.247-0.138-0.496-0.274-0.746-0.41c-0.201-0.108-0.404-0.216-0.606-0.324c-0.254-0.134-0.509-0.267-0.766-0.398
			c-0.199-0.103-0.398-0.206-0.601-0.308c-0.285-0.144-0.574-0.286-0.864-0.428c-0.174-0.085-0.346-0.172-0.521-0.256
			c-0.451-0.216-0.905-0.43-1.363-0.641c-0.164-0.076-0.332-0.148-0.497-0.224c-0.315-0.142-0.631-0.284-0.949-0.423
			c-0.204-0.089-0.409-0.176-0.613-0.264c-0.289-0.124-0.579-0.247-0.87-0.368c-0.213-0.089-0.426-0.176-0.641-0.264
			c-0.297-0.121-0.596-0.241-0.896-0.359c-0.207-0.082-0.414-0.164-0.622-0.244c-0.344-0.133-0.69-0.264-1.038-0.394
			c-0.167-0.062-0.333-0.125-0.501-0.188c-0.504-0.185-1.012-0.367-1.524-0.546c-0.172-0.06-0.346-0.118-0.518-0.177
			c-0.359-0.123-0.719-0.245-1.082-0.365c-0.214-0.071-0.431-0.14-0.646-0.21c-0.329-0.106-0.659-0.212-0.992-0.316
			c-0.224-0.07-0.448-0.139-0.674-0.208c-0.341-0.104-0.684-0.207-1.027-0.308c-0.215-0.063-0.429-0.127-0.645-0.189
			c-0.409-0.118-0.821-0.233-1.235-0.347c-0.151-0.042-0.302-0.085-0.454-0.126c-0.558-0.152-1.122-0.3-1.689-0.445
			c-0.181-0.046-0.364-0.091-0.546-0.136c-0.4-0.1-0.802-0.2-1.206-0.297c-0.226-0.055-0.454-0.108-0.682-0.161
			c-0.37-0.086-0.743-0.172-1.116-0.256c-0.234-0.053-0.47-0.105-0.705-0.157c-0.386-0.084-0.774-0.167-1.164-0.249
			c-0.221-0.046-0.439-0.093-0.662-0.138c-0.48-0.098-0.966-0.193-1.452-0.288c-0.13-0.025-0.259-0.051-0.39-0.076
			c-0.613-0.117-1.231-0.229-1.854-0.338c-0.192-0.034-0.387-0.065-0.579-0.099c-0.439-0.076-0.881-0.15-1.325-0.222
			c-0.239-0.039-0.481-0.077-0.724-0.115c-0.409-0.064-0.82-0.127-1.233-0.189c-0.247-0.037-0.494-0.073-0.742-0.108
			c-0.43-0.062-0.863-0.122-1.298-0.181c-0.227-0.031-0.452-0.062-0.681-0.092c-0.562-0.074-1.127-0.145-1.696-0.213
			c-0.1-0.012-0.197-0.025-0.298-0.037c-0.666-0.079-1.338-0.154-2.015-0.226c-0.207-0.022-0.417-0.042-0.625-0.063
			c-0.477-0.049-0.954-0.097-1.435-0.142c-0.255-0.024-0.511-0.047-0.767-0.07c-0.447-0.041-0.896-0.079-1.349-0.116
			c-0.26-0.022-0.521-0.043-0.781-0.063c-0.475-0.037-0.953-0.072-1.432-0.106c-0.233-0.017-0.466-0.034-0.701-0.05
			c-0.653-0.043-1.311-0.084-1.974-0.122c-0.058-0.003-0.114-0.007-0.172-0.01c-0.72-0.04-1.444-0.076-2.173-0.109
			c-0.227-0.01-0.456-0.019-0.685-0.028c-0.509-0.021-1.018-0.041-1.532-0.059c-0.271-0.009-0.543-0.018-0.816-0.026
			c-0.482-0.015-0.968-0.028-1.455-0.039c-0.276-0.007-0.554-0.013-0.832-0.019c-0.517-0.01-1.037-0.018-1.558-0.025
			c-0.241-0.003-0.481-0.007-0.724-0.009c-0.762-0.008-1.527-0.012-2.3-0.012c-7.502,0-14.558,0.357-21.17,1.054
			c-1.469,0.155-2.917,0.327-4.342,0.515c-1.303,0.172-2.588,0.358-3.854,0.559s-2.515,0.413-3.745,0.641
			c-1.23,0.227-2.441,0.468-3.636,0.723c-1.193,0.254-2.369,0.522-3.526,0.804c-2.314,0.563-4.557,1.179-6.726,1.848
			c-1.084,0.334-2.151,0.682-3.199,1.042c-0.524,0.18-1.044,0.364-1.559,0.55C165.938,231.436,165.501,293.72,218.55,373
			c43.647,65.229,71.064,65.229,114.711,0c0.745-1.113,1.476-2.222,2.198-3.328c0.145-0.219,0.288-0.438,0.432-0.658
			c0.718-1.104,1.427-2.203,2.124-3.3c0.064-0.101,0.128-0.202,0.192-0.304c1.507-2.374,2.964-4.732,4.371-7.072
			c0.004-0.007,0.008-0.013,0.012-0.02l-12.12-8.303c0,0-9.41-5.78-18.399-3.47c-26.716,6.868-11.832,28.536-38.913-0.895
			c-11.883-12.919-22.689-31.109-22.689-31.109s-2.225-5.16-7.977-5.612c-3.016-0.237-5.816,1.619-5.816,1.619
			s-9.942,8.177-23.505,2.827c-11.176-4.409-14.03-13.668-14.03-13.668s-5.994-11.986,1.449-24.205
			c7.961-13.065,22.988-8.807,22.988-8.807l11.19,3.062l1.172-4.302l-2.527-0.688c-0.93-0.254-1.48-1.213-1.226-2.143l1.289-4.736
			c0.252-0.931,1.213-1.479,2.143-1.227l9.42,2.564c0.931,0.254,1.479,1.213,1.226,2.143l-1.289,4.736
			c-0.252,0.93-1.213,1.479-2.143,1.227l-2.684-0.731l-1.173,4.308l14.732,4.031l1.177-4.329l-2.526-0.687
			c-0.93-0.254-1.478-1.212-1.226-2.143l1.29-4.736c0.252-0.93,1.212-1.479,2.142-1.227l9.421,2.565
			c0.93,0.253,1.479,1.212,1.227,2.143l-1.29,4.735c-0.254,0.931-1.211,1.48-2.142,1.227l-2.685-0.731l-1.18,4.334l15.258,4.176
			l1.186-4.355l-2.526-0.687c-0.93-0.253-1.479-1.214-1.227-2.144l1.29-4.735c0.253-0.93,1.212-1.479,2.143-1.227l9.421,2.563
			c0.929,0.254,1.479,1.214,1.227,2.145l-1.289,4.735c-0.255,0.93-1.215,1.479-2.144,1.227l-2.685-0.731l-1.187,4.361l15.258,4.176
			l1.19-4.382l-2.526-0.688c-0.929-0.254-1.477-1.213-1.224-2.142l1.289-4.737c0.253-0.93,1.213-1.479,2.142-1.226l9.421,2.564
			c0.931,0.253,1.479,1.213,1.228,2.144l-1.29,4.735c-0.254,0.93-1.213,1.48-2.145,1.228l-2.684-0.732l-1.193,4.387l15.256,4.177
			l1.201-4.41l-2.526-0.687c-0.932-0.253-1.48-1.213-1.227-2.142l1.29-4.737c0.253-0.93,1.212-1.478,2.142-1.227l9.422,2.565
			c0.929,0.253,1.478,1.213,1.224,2.143l-1.288,4.737c-0.254,0.929-1.213,1.478-2.142,1.226l-2.685-0.731l-1.202,4.416l15.256,4.175
			l1.209-4.437l-2.527-0.687c-0.931-0.254-1.479-1.213-1.226-2.145l1.29-4.735c0.253-0.93,1.213-1.479,2.143-1.227l9.421,2.565
			c0.929,0.254,1.479,1.213,1.226,2.142l-1.288,4.736c-0.254,0.931-1.216,1.479-2.144,1.227l-2.686-0.731l-1.208,4.442l4.303,1.179
			c0,0,4.738,1.357,7.111,5.903c1.585,3.038,1.031,12.824,1.031,12.824l11.317,8.265c0.24-0.563,0.478-1.123,0.711-1.683
			c0.008-0.019,0.016-0.038,0.024-0.057c1.414-3.389,2.703-6.725,3.868-10.009c0.011-0.03,0.021-0.061,0.032-0.091
			c0.967-2.73,1.847-5.423,2.64-8.077c0.004-0.014,0.008-0.027,0.013-0.041c0.152-0.511,0.301-1.02,0.447-1.527
			c0.012-0.044,0.025-0.089,0.038-0.133c0.748-2.611,1.41-5.184,1.987-7.716c0.009-0.04,0.02-0.081,0.027-0.121
			c0.108-0.475,0.213-0.949,0.314-1.421c0.013-0.06,0.025-0.12,0.039-0.179c0.532-2.49,0.981-4.94,1.346-7.349
			c0.01-0.063,0.02-0.126,0.028-0.189c0.066-0.441,0.13-0.88,0.189-1.318c0.01-0.074,0.021-0.148,0.03-0.222
			c0.061-0.448,0.12-0.895,0.175-1.34c0.001-0.006,0.001-0.011,0.002-0.017c0.233-1.899,0.412-3.771,0.538-5.617
			c0.006-0.083,0.012-0.167,0.018-0.25c0.026-0.406,0.051-0.811,0.071-1.214c0.005-0.088,0.009-0.176,0.014-0.264
			c0.021-0.414,0.039-0.827,0.055-1.239c0.001-0.02,0.001-0.04,0.002-0.06c0.049-1.356,0.068-2.698,0.057-4.024
			C372.212,271.381,372.212,271.345,372.212,271.31z"/>
		<path fill="#990033" d="M267.551,288.89c-1.533,2.236-0.961,5.292,1.274,6.825c2.237,1.533,5.292,0.962,6.826-1.275
			c1.531-2.236,0.961-5.291-1.275-6.824C272.139,286.082,269.084,286.653,267.551,288.89z"/>
		<path fill="#990033" d="M286.999,294.28c-1.53,2.238-0.96,5.292,1.276,6.826c2.236,1.532,5.292,0.961,6.826-1.276
			c1.531-2.237,0.96-5.292-1.276-6.825S288.532,292.043,286.999,294.28z"/>
		<path fill="#990033" d="M229.413,277.967c-1.532,2.237-0.961,5.292,1.275,6.825c2.235,1.533,5.291,0.961,6.823-1.275
			c1.533-2.237,0.962-5.292-1.275-6.826C234,275.159,230.945,275.729,229.413,277.967z"/>
		<path fill="#990033" d="M248.482,283.429c-1.532,2.236-0.961,5.291,1.275,6.823c2.236,1.534,5.292,0.962,6.825-1.275
			c1.532-2.235,0.961-5.29-1.275-6.823C253.07,280.621,250.015,281.192,248.482,283.429z"/>
	</g>
</g>
<g id="Layer_3">
	<path id="guitar" fill="#FDFCFB" d="M348.229,317.31c0,0,0.555-9.785-1.03-12.824c-2.374-4.545-7.112-5.903-7.112-5.903
		l-4.303-1.179l1.209-4.442l2.685,0.731c0.928,0.253,1.89-0.295,2.144-1.227l1.289-4.736c0.253-0.929-0.298-1.888-1.228-2.142
		l-9.42-2.565c-0.93-0.253-1.89,0.297-2.143,1.227l-1.29,4.735c-0.254,0.931,0.295,1.89,1.226,2.144l2.527,0.687l-1.209,4.437
		l-15.256-4.175l1.202-4.416l2.684,0.731c0.929,0.252,1.889-0.296,2.143-1.226l1.288-4.736c0.254-0.93-0.295-1.89-1.224-2.143
		l-9.421-2.565c-0.931-0.252-1.891,0.297-2.143,1.227l-1.29,4.737c-0.254,0.929,0.295,1.889,1.227,2.142l2.526,0.688l-1.201,4.41
		l-15.256-4.177l1.193-4.387l2.684,0.731c0.932,0.252,1.891-0.297,2.145-1.227l1.29-4.736c0.252-0.93-0.297-1.889-1.228-2.144
		l-9.421-2.564c-0.93-0.252-1.889,0.296-2.143,1.226l-1.287,4.737c-0.254,0.929,0.294,1.888,1.223,2.142l2.526,0.688l-1.19,4.383
		l-15.258-4.176l1.186-4.361l2.685,0.731c0.929,0.252,1.889-0.297,2.145-1.227l1.288-4.735c0.254-0.93-0.297-1.89-1.226-2.144
		l-9.421-2.563c-0.93-0.253-1.889,0.296-2.142,1.226l-1.29,4.735c-0.252,0.93,0.297,1.89,1.227,2.144l2.526,0.687l-1.186,4.355
		l-15.258-4.176l1.18-4.334l2.685,0.73c0.93,0.253,1.888-0.295,2.142-1.227l1.29-4.735c0.252-0.93-0.297-1.89-1.227-2.143
		l-9.421-2.565c-0.93-0.252-1.889,0.297-2.142,1.227l-1.289,4.736c-0.252,0.931,0.295,1.889,1.226,2.143l2.526,0.687l-1.178,4.329
		l-14.731-4.031l1.173-4.308l2.684,0.731c0.93,0.253,1.89-0.297,2.143-1.227l1.289-4.736c0.253-0.93-0.294-1.889-1.226-2.143
		l-9.42-2.564c-0.93-0.253-1.891,0.295-2.143,1.227l-1.289,4.735c-0.254,0.93,0.295,1.889,1.226,2.143l2.527,0.688l-1.172,4.302
		l-11.19-3.062c0,0-15.027-4.258-22.988,8.807c-7.443,12.219-1.449,24.205-1.449,24.205s2.854,9.26,14.03,13.668
		c13.562,5.351,23.504-2.827,23.504-2.827s2.8-1.856,5.816-1.619c5.752,0.452,7.977,5.613,7.977,5.613s10.805,18.19,22.689,31.108
		c27.082,29.431,12.197,7.763,38.913,0.895c8.988-2.311,18.399,3.47,18.399,3.47l12.12,8.304
		c7.187-11.952,17.194-33.309,16.954-32.746L348.229,317.31z M237.511,283.517c-1.532,2.237-4.588,2.808-6.823,1.275
		c-2.236-1.533-2.808-4.588-1.275-6.825s4.587-2.808,6.824-1.276C238.474,278.225,239.043,281.279,237.511,283.517z
		 M256.582,288.977c-1.532,2.238-4.588,2.809-6.825,1.275c-2.236-1.532-2.807-4.587-1.275-6.823
		c1.533-2.236,4.588-2.808,6.825-1.275C257.543,283.687,258.114,286.742,256.582,288.977z M275.651,294.439
		c-1.533,2.238-4.588,2.809-6.826,1.275c-2.235-1.532-2.808-4.588-1.274-6.825c1.533-2.236,4.587-2.807,6.825-1.275
		C276.612,289.148,277.183,292.203,275.651,294.439z M295.101,299.83c-1.533,2.237-4.59,2.808-6.825,1.276
		c-2.237-1.534-2.808-4.588-1.276-6.826c1.533-2.237,4.59-2.807,6.826-1.274C296.062,294.538,296.632,297.593,295.101,299.83z
		 M314.547,305.22c-1.531,2.236-4.587,2.808-6.823,1.275s-2.807-4.588-1.275-6.825c1.533-2.237,4.586-2.807,6.823-1.275
		C315.511,299.928,316.08,302.984,314.547,305.22z M333.996,310.61c-1.531,2.237-4.586,2.808-6.823,1.275s-2.809-4.588-1.275-6.825
		c1.533-2.236,4.587-2.807,6.823-1.275C334.959,305.318,335.529,308.374,333.996,310.61z"/>
</g>
</svg>
