<?xml version="1.0" encoding="utf-8"?>
<!-- Generator: Adobe Illustrator 16.0.0, SVG Export Plug-In . SVG Version: 6.00 Build 0)  -->
<!DOCTYPE svg PUBLIC "-//W3C//DTD SVG 1.1//EN" "http://www.w3.org/Graphics/SVG/1.1/DTD/svg11.dtd">
<svg version="1.1" id="Layer_1" xmlns="http://www.w3.org/2000/svg" xmlns:xlink="http://www.w3.org/1999/xlink" x="0px" y="0px"
	 width="406px" height="404px" viewBox="0 0 406 404" enable-background="new 0 0 406 404" xml:space="preserve">
<g>
	<path class="bg" fill-rule="evenodd" clip-rule="evenodd" fill="#ffffff" d="M11.75,358.957c0-103.487,0-206.975,0-310.462
		c1.319-0.729,1-2.174,1.313-3.278c4.963-17.506,16.399-28.223,33.943-32.624c0.766-0.192,1.823,0.3,2.239-0.844
		c102.987,0,205.975,0,308.962,0c0.224,0.794,0.917,0.636,1.493,0.766c18.646,4.227,30.237,15.7,35.093,34.124
		c0.231,0.876-0.336,2.075,0.909,2.605c0,103.237,0,206.474,0,309.712c-1.321,0.726-1.002,2.172-1.316,3.273
		c-5.037,17.638-16.555,28.42-34.313,32.674c-0.665,0.159-1.551-0.185-1.865,0.798c-103.237,0-206.475,0-309.712,0
		c-0.47-1.227-1.694-0.874-2.559-1.108c-17.365-4.705-28.369-15.716-33.073-33.08C12.629,360.649,12.979,359.424,11.75,358.957z
		 M203.7,351.403c43.867,0,87.734,0.012,131.603-0.009c9.666-0.004,16.079-6.097,16.085-15.396
		c0.034-52.866,0.003-105.732,0.063-158.598c0.003-2.357-0.502-3.248-3.062-3.204c-8.996,0.155-17.998,0.163-26.993,0.001
		c-2.903-0.052-3.246,0.785-2.605,3.438c3.502,14.501,3.958,29.174,1.79,43.907c-9.444,64.173-70.219,108.817-134.761,99.044
		c-67.447-10.214-112.425-76.038-97.248-142.539c0.818-3.584-0.166-3.904-3.212-3.846c-8.37,0.159-16.751,0.23-25.117-0.029
		c-3.446-0.107-4.282,0.886-4.274,4.301c0.115,51.866,0.08,103.732,0.081,155.598c0,11.577,5.694,17.33,17.174,17.331
		C116.715,351.407,160.208,351.404,203.7,351.403z M277.494,203.711c-0.003-40.828-33.074-73.846-73.872-73.753
		c-40.73,0.092-73.497,32.825-73.664,73.587c-0.166,40.757,32.821,73.86,73.685,73.942
		C244.433,277.57,277.496,244.54,277.494,203.711z M314.705,56.021c-7.12,0-14.24-0.048-21.36,0.012
		c-9.431,0.078-15.606,5.978-15.702,15.353c-0.148,14.363-0.146,28.73-0.003,43.094c0.092,9.333,5.962,15.231,15.282,15.33
		c14.363,0.151,28.729,0.145,43.093,0.002c9.402-0.092,15.355-6.284,15.379-15.66c0.038-14.115,0.037-28.23,0-42.345
		c-0.023-9.497-6.179-15.68-15.704-15.772C328.695,55.966,321.7,56.021,314.705,56.021z"/>
	<path class="fg" fill-rule="evenodd" clip-rule="evenodd" fill="#424242" d="M203.7,351.404c-43.493,0-86.985,0.003-130.478-0.002
		c-11.48-0.001-17.174-5.754-17.174-17.331c-0.001-51.866,0.035-103.732-0.081-155.598c-0.008-3.416,0.828-4.408,4.274-4.301
		c8.366,0.259,16.747,0.188,25.117,0.029c3.047-0.058,4.031,0.262,3.212,3.846c-15.177,66.5,29.801,132.325,97.248,142.539
		c64.542,9.773,125.317-34.871,134.761-99.044c2.168-14.732,1.712-29.406-1.79-43.907c-0.641-2.652-0.298-3.49,2.605-3.438
		c8.995,0.161,17.997,0.154,26.993-0.001c2.56-0.044,3.064,0.847,3.062,3.204c-0.06,52.865-0.028,105.731-0.063,158.598
		c-0.006,9.3-6.419,15.393-16.085,15.396C291.435,351.415,247.567,351.403,203.7,351.404z"/>
	<path class="fg" fill-rule="evenodd" clip-rule="evenodd" fill="#424242" d="M277.494,203.711c0.002,40.829-33.062,73.859-73.851,73.777
		c-40.864-0.082-73.851-33.186-73.685-73.942c0.167-40.762,32.933-73.495,73.664-73.587
		C244.42,129.865,277.491,162.884,277.494,203.711z"/>
	<path class="fg" fill-rule="evenodd" clip-rule="evenodd" fill="#424242" d="M314.705,56.021c6.995,0,13.99-0.055,20.984,0.014
		c9.525,0.093,15.681,6.276,15.704,15.772c0.037,14.115,0.038,28.23,0,42.345c-0.023,9.376-5.977,15.568-15.379,15.66
		c-14.363,0.142-28.729,0.148-43.093-0.002c-9.32-0.098-15.19-5.996-15.282-15.33c-0.143-14.364-0.146-28.731,0.003-43.094
		c0.096-9.375,6.271-15.274,15.702-15.353C300.465,55.974,307.585,56.021,314.705,56.021z"/>
</g>
</svg>
