<?xml version="1.0" encoding="utf-8"?>
<!-- Generator: Adobe Illustrator 16.0.0, SVG Export Plug-In . SVG Version: 6.00 Build 0)  -->
<!DOCTYPE svg PUBLIC "-//W3C//DTD SVG 1.1//EN" "http://www.w3.org/Graphics/SVG/1.1/DTD/svg11.dtd">
<svg version="1.1" id="Layer_1" xmlns="http://www.w3.org/2000/svg" xmlns:xlink="http://www.w3.org/1999/xlink" x="0px" y="0px"
	 width="374px" height="276px" viewBox="0 0 374 276" enable-background="new 0 0 374 276" xml:space="preserve">
<g>
	<path class="bg" fill-rule="evenodd" clip-rule="evenodd" fill="#83222E" d="M187.458,18.219c12.951,0,25.905-0.169,38.854,0.043
		c15.858,0.26,31.717,0.718,47.566,1.321c12.267,0.467,24.543,0.933,36.764,2.229c13.301,1.412,24.436,6.88,32.284,17.963
		c4.414,6.233,6.534,13.524,8.437,20.845c2.104,8.097,2.531,16.415,3.332,24.685c2.267,23.419,1.749,46.908,1.664,70.379
		c-0.055,15.099-1.286,30.144-2.894,45.155c-0.986,9.209-3.228,18.09-7.044,26.521c-5.905,13.046-16.396,20.4-30.099,23.357
		c-8.587,1.852-17.394,1.891-26.132,2.383c-16.169,0.91-32.353,1.424-48.543,1.8c-10.905,0.252-21.812,0.514-32.722,0.56
		c-8.763,0.037-17.525,0.262-26.286,0.188c-14.104-0.119-28.206-0.36-42.307-0.652c-12.114-0.251-24.227-0.574-36.336-0.997
		c-10.235-0.357-20.487-0.62-30.677-1.676c-6.229-0.646-12.483-1.318-18.558-3.037c-14.073-3.982-23.525-12.781-28.316-26.669
		c-2.964-8.591-4.761-17.381-5.568-26.415c-1.072-12.015-2.189-24.037-2.281-36.098c-0.171-22.426-0.734-44.867,0.997-67.263
		c0.712-9.22,1.19-18.475,2.914-27.586c1.23-6.501,3.075-12.836,5.796-18.885C34.15,33.374,44.486,25.99,58.084,22.82
		c5.867-1.368,11.891-1.604,17.88-1.984c14.563-0.927,29.145-1.446,43.728-1.937c8.093-0.272,16.191-0.427,24.288-0.549
		c14.492-0.219,28.985-0.374,43.477-0.555C187.458,17.937,187.458,18.078,187.458,18.219z M156.527,87.956
		c-0.245-0.367-0.601-0.538-1.03-0.581c-0.234-0.142-0.464-0.291-0.705-0.423c-2.21-1.218-2.211-1.217-2.211,1.234
		c0,30.031,0,60.062,0,90.092c0,0.643,0,1.286,0,2.193c0.933-0.452,1.665-0.785,2.377-1.155
		c20.205-10.471,40.41-20.939,60.608-31.423c5.654-2.935,11.285-5.915,16.927-8.874c3.657-1.842,7.315-3.684,10.984-5.532
		c-0.29-0.631-0.765-0.689-1.132-0.88c-24.551-12.82-49.102-25.64-73.664-38.44c-4.038-2.104-7.997-4.366-12.165-6.218
		L156.527,87.956z"/>
	<path class="fg" fill-rule="evenodd" clip-rule="evenodd" fill="#FDFDFD" d="M232.494,139.02c-5.642,2.959-11.272,5.939-16.927,8.874
		c-20.198,10.483-40.403,20.952-60.608,31.423c-0.713,0.37-1.444,0.703-2.377,1.155c0-0.907,0-1.551,0-2.193
		c0-30.03,0-60.061,0-90.092c0-2.452,0-2.452,2.211-1.234c0.24,0.132,0.47,0.281,0.705,0.423c0.087,0.648,0.553,0.624,1.03,0.581
		l-0.009-0.006c0.056,0.819,0.798,0.995,1.315,1.341c20.468,13.7,40.939,27.396,61.425,41.07
		C223.643,133.288,228.081,136.135,232.494,139.02z"/>
	<path fill-rule="evenodd" clip-rule="evenodd" fill="#EEE1E3" d="M232.494,139.02c-4.413-2.885-8.852-5.732-13.236-8.659
		c-20.485-13.674-40.957-27.37-61.425-41.07c-0.517-0.346-1.259-0.522-1.315-1.341c4.168,1.852,8.127,4.114,12.165,6.218
		c24.562,12.8,49.113,25.62,73.664,38.44c0.367,0.191,0.842,0.249,1.132,0.88C239.81,135.335,236.151,137.178,232.494,139.02z"/>
	<path fill-rule="evenodd" clip-rule="evenodd" fill="#EEE1E3" d="M156.527,87.956c-0.477,0.043-0.943,0.068-1.03-0.581
		C155.926,87.417,156.282,87.589,156.527,87.956z"/>
</g>
</svg>
