<?xml version="1.0" standalone="no"?>
<!DOCTYPE svg PUBLIC "-//W3C//DTD SVG 20010904//EN"
 "http://www.w3.org/TR/2001/REC-SVG-20010904/DTD/svg10.dtd">
<svg version="1.0" xmlns="http://www.w3.org/2000/svg"
 width="512.000000pt" height="512.000000pt" viewBox="0 0 512.000000 512.000000"
 preserveAspectRatio="xMidYMid meet">
<metadata>
Created by potrace 1.11, written by Peter Selinger 2001-2013
</metadata>
<g transform="translate(0.000000,512.000000) scale(0.100000,-0.100000)"
fill="#000000" stroke="none">
<path d="M2322 4999 c-727 -35 -1294 -254 -1592 -614 -180 -216 -273 -451
-306 -772 -15 -142 -15 -169 0 -319 19 -195 43 -323 96 -515 128 -467 383
-988 760 -1554 221 -331 398 -552 596 -745 205 -200 395 -313 576 -344 37 -6
70 -15 74 -19 10 -9 78 -9 88 0 4 4 37 13 74 19 306 52 645 346 1043 904 93
130 212 310 289 435 l37 60 -151 102 c-185 125 -254 154 -386 160 -122 7 -188
-7 -303 -64 -80 -40 -105 -60 -192 -150 -120 -124 -131 -126 -221 -60 -80 59
-321 310 -436 454 -107 133 -268 362 -351 498 -68 112 -112 147 -194 153 -53
4 -65 0 -147 -43 -48 -26 -113 -55 -144 -66 -132 -45 -272 -31 -421 42 -280
138 -399 493 -259 776 82 168 234 263 418 263 55 0 247 -40 361 -76 13 -3 18
4 24 33 4 21 8 40 8 42 1 3 -13 8 -30 13 -51 13 -58 38 -34 118 15 47 27 71
40 75 25 7 252 -50 263 -67 11 -19 10 -38 -8 -99 -22 -75 -29 -81 -79 -73
l-42 6 -10 -41 -11 -40 52 -15 c75 -22 247 -66 256 -66 5 0 14 16 20 36 13 39
4 54 -31 54 -41 0 -47 43 -19 142 16 58 30 60 160 27 146 -36 154 -44 134
-131 -19 -82 -28 -90 -83 -86 -45 3 -45 3 -54 -35 -5 -21 -7 -40 -5 -42 4 -5
305 -85 317 -85 4 0 12 18 18 41 10 39 10 40 -18 46 -48 9 -54 26 -42 100 7
39 20 74 30 85 19 18 22 18 136 -11 127 -31 147 -42 147 -75 0 -36 -28 -129
-42 -138 -7 -5 -32 -6 -54 -3 l-41 6 -11 -43 c-6 -23 -10 -43 -9 -44 1 -1 65
-18 142 -37 77 -20 150 -39 161 -43 18 -5 24 0 34 30 13 40 7 56 -19 56 -10 0
-26 9 -36 20 -17 19 -17 22 0 87 26 102 23 101 160 68 64 -16 127 -36 138 -46
22 -17 22 -17 4 -86 -23 -89 -35 -100 -87 -86 l-40 10 -10 -36 c-5 -20 -10
-41 -10 -46 0 -6 64 -27 143 -48 78 -20 152 -39 163 -43 19 -5 22 0 29 33 4
21 8 40 8 42 1 3 -13 9 -30 13 -43 11 -50 41 -28 123 22 78 33 84 126 60 134
-34 169 -47 179 -64 12 -23 -16 -128 -41 -155 -16 -17 -23 -18 -54 -9 -39 12
-39 13 -53 -40 -8 -28 -8 -39 1 -42 7 -2 75 -20 152 -41 77 -20 145 -39 151
-41 11 -4 34 46 34 73 0 7 -14 15 -30 19 -46 10 -54 35 -34 108 21 75 29 87
61 87 28 0 208 -47 236 -61 21 -12 22 -37 1 -111 -20 -69 -40 -85 -86 -69 -17
6 -32 11 -34 11 -7 0 -25 -81 -20 -89 3 -4 30 -13 61 -20 64 -14 126 -58 167
-116 32 -46 48 -122 48 -237 l0 -76 110 -81 c60 -45 115 -84 123 -86 27 -11
190 466 236 693 11 56 30 187 42 290 23 200 20 265 -17 497 -30 181 -120 399
-225 543 -307 420 -859 649 -1670 692 -211 11 -248 11 -477 -1z"/>
<path d="M1574 3360 c-66 -26 -73 -148 -10 -178 42 -20 58 -22 90 -8 40 17 66
51 66 88 0 79 -72 128 -146 98z"/>
<path d="M2003 3240 c-26 -11 -63 -66 -63 -93 0 -58 67 -114 125 -103 110 21
106 186 -6 201 -18 3 -44 0 -56 -5z"/>
<path d="M2434 3120 c-12 -4 -31 -21 -43 -36 -75 -96 63 -221 150 -135 16 16
30 39 30 50 1 12 2 27 3 34 4 23 -24 67 -54 82 -32 17 -54 18 -86 5z"/>
<path d="M2854 2991 c-44 -27 -60 -77 -41 -124 46 -108 196 -78 197 39 0 36
-5 47 -35 73 -41 36 -76 39 -121 12z"/>
<path d="M3304 2880 c-34 -13 -64 -59 -64 -97 0 -50 54 -103 105 -103 46 0
105 53 105 94 0 78 -77 134 -146 106z"/>
<path d="M3729 2755 c-15 -8 -34 -30 -43 -50 -49 -102 80 -193 163 -116 26 24
31 37 31 73 0 36 -6 50 -28 72 -35 32 -87 42 -123 21z"/>
</g>
</svg>
