<?xml version="1.0" standalone="no"?>
<!DOCTYPE svg PUBLIC "-//W3C//DTD SVG 20010904//EN"
 "http://www.w3.org/TR/2001/REC-SVG-20010904/DTD/svg10.dtd">
<svg version="1.0" xmlns="http://www.w3.org/2000/svg"
 width="513.000000pt" height="513.000000pt" viewBox="0 0 513.000000 513.000000"
 preserveAspectRatio="xMidYMid meet">
<metadata>
Created by potrace 1.11, written by Peter Selinger 2001-2013
</metadata>
<g transform="translate(0.000000,513.000000) scale(0.100000,-0.100000)"
fill="#000000" stroke="none">
<path d="M2300 4913 c-253 -15 -559 -70 -762 -137 -494 -162 -815 -455 -952
-867 -56 -169 -70 -266 -70 -494 0 -281 41 -516 144 -827 223 -666 777 -1583
1231 -2038 630 -632 1145 -456 1892 645 52 77 125 189 162 249 55 90 64 111
53 121 -7 7 -76 55 -153 107 -160 108 -236 138 -362 146 -65 3 -96 0 -155 -18
-132 -40 -203 -84 -309 -192 -139 -143 -146 -141 -385 105 -211 216 -405 469
-574 745 -80 131 -114 157 -210 157 -59 0 -72 -4 -135 -42 -92 -54 -153 -75
-248 -81 -322 -20 -587 236 -587 568 0 168 82 335 204 419 117 81 256 92 459
36 70 -19 134 -35 141 -35 7 0 18 18 24 41 9 34 8 41 -6 45 -50 16 -62 25 -62
47 0 35 28 123 44 136 19 16 243 -45 256 -69 11 -20 -15 -127 -36 -149 -10
-11 -21 -12 -53 -4 l-41 11 -7 -37 c-4 -20 -8 -40 -8 -45 0 -12 297 -96 307
-87 3 3 9 23 13 43 7 35 5 38 -29 52 -40 17 -45 37 -24 110 15 54 25 66 55 66
32 0 205 -49 222 -63 16 -13 9 -78 -14 -133 -15 -36 -16 -36 -59 -30 l-45 7
-12 -41 c-7 -22 -10 -42 -8 -44 14 -12 313 -86 319 -79 5 4 11 24 15 45 7 34
5 36 -24 43 -45 10 -53 31 -35 101 24 91 27 93 137 65 130 -34 157 -46 157
-71 0 -64 -49 -165 -71 -146 -2 2 -16 6 -31 10 -25 6 -28 3 -39 -34 -7 -22 -9
-43 -6 -47 4 -3 76 -25 159 -48 163 -46 160 -46 173 12 6 30 4 33 -28 47 -19
7 -37 19 -41 24 -11 18 25 142 44 152 20 11 227 -43 249 -65 13 -13 13 -22 2
-67 -7 -29 -20 -63 -28 -76 -12 -20 -19 -22 -58 -17 l-43 7 -7 -42 c-4 -23 -5
-43 -3 -45 4 -4 300 -85 310 -85 6 0 28 64 28 82 0 3 -13 9 -29 13 -48 10 -54
26 -40 91 7 31 20 66 30 78 l17 21 74 -19 c149 -38 168 -46 173 -69 3 -12 -3
-49 -13 -82 l-19 -60 -50 1 -50 2 -10 -44 -10 -43 51 -15 c28 -8 96 -27 151
-41 55 -15 104 -29 110 -31 11 -5 37 75 29 87 -2 4 -17 10 -34 14 -38 8 -44
31 -26 101 24 90 25 91 156 55 63 -17 120 -37 128 -45 13 -13 13 -22 -3 -78
-23 -84 -29 -90 -80 -82 -40 6 -43 5 -49 -23 -4 -15 -9 -35 -12 -44 -3 -12 9
-19 52 -29 77 -19 152 -73 182 -133 21 -40 26 -66 30 -167 l5 -120 116 -85
c63 -47 118 -81 122 -77 24 24 139 356 184 527 64 250 79 365 79 610 0 239
-12 326 -70 501 -219 658 -931 1012 -2019 1002 -110 -1 -225 -3 -255 -5z"/>
<path d="M1620 3323 c-84 -43 -66 -172 27 -189 97 -18 162 93 96 166 -36 38
-77 46 -123 23z"/>
<path d="M2024 3201 c-92 -56 -40 -202 66 -187 95 14 122 141 40 189 -37 22
-68 21 -106 -2z"/>
<path d="M2431 3084 c-65 -46 -57 -145 16 -179 86 -41 172 51 131 140 -23 50
-101 71 -147 39z"/>
<path d="M2885 2983 c-56 -15 -93 -73 -79 -127 9 -35 59 -76 94 -76 61 0 110
45 110 100 0 37 -30 81 -65 96 -19 8 -36 13 -37 13 -2 -1 -12 -4 -23 -6z"/>
<path d="M3285 2861 c-91 -39 -76 -179 21 -197 44 -8 85 13 108 57 22 41 17
75 -17 114 -24 28 -78 41 -112 26z"/>
<path d="M3691 2736 c-30 -17 -50 -53 -51 -91 -1 -87 111 -131 174 -69 30 31
38 70 21 110 -24 58 -89 81 -144 50z"/>
</g>
</svg>
